<svg width="24" height="24" viewBox="0 0 24 24" fill="none" xmlns="http://www.w3.org/2000/svg">
<path d="M22.5 9H20.25C20.25 8.80109 20.171 8.61033 20.0303 8.46967C19.8897 8.32902 19.6989 8.25 19.5 8.25H12.75C12.5511 8.25 12.3603 8.32902 12.2197 8.46967C12.079 8.61033 12 8.80109 12 9H6V4.875C6 4.57664 6.11853 4.29049 6.3295 4.07951C6.54048 3.86853 6.82663 3.75 7.125 3.75C7.38867 3.74893 7.64493 3.83723 7.85196 4.00051C8.059 4.16379 8.2046 4.3924 8.265 4.64907C8.3062 4.84235 8.42202 5.01156 8.58729 5.11992C8.75255 5.22828 8.95391 5.26703 9.14759 5.22775C9.34127 5.18847 9.51162 5.07433 9.62162 4.91015C9.73161 4.74596 9.77236 4.545 9.735 4.35094C9.60766 3.75414 9.27862 3.21942 8.80326 2.83677C8.3279 2.45413 7.73523 2.24691 7.125 2.25C6.42881 2.25 5.76113 2.52657 5.26884 3.01885C4.77656 3.51113 4.5 4.17881 4.5 4.875V9H1.5C1.30109 9 1.11032 9.07902 0.96967 9.21967C0.829018 9.36033 0.75 9.55109 0.75 9.75V13.5C0.751489 14.8919 1.30509 16.2264 2.28933 17.2107C3.27358 18.1949 4.60807 18.7485 6 18.75V20.25C6 20.4489 6.07902 20.6397 6.21967 20.7803C6.36032 20.921 6.55109 21 6.75 21C6.94891 21 7.13968 20.921 7.28033 20.7803C7.42098 20.6397 7.5 20.4489 7.5 20.25V18.75H16.5V20.25C16.5 20.4489 16.579 20.6397 16.7197 20.7803C16.8603 20.921 17.0511 21 17.25 21C17.4489 21 17.6397 20.921 17.7803 20.7803C17.921 20.6397 18 20.4489 18 20.25V18.75C19.3919 18.7485 20.7264 18.1949 21.7107 17.2107C22.6949 16.2264 23.2485 14.8919 23.25 13.5V9.75C23.25 9.55109 23.171 9.36033 23.0303 9.21967C22.8897 9.07902 22.6989 9 22.5 9ZM18.75 9.75V13.5H13.5V9.75H18.75Z" fill="#2F4B67" fill-opacity="0.8"/>
</svg>
