<svg width="25" height="24" viewBox="0 0 25 24" fill="none" xmlns="http://www.w3.org/2000/svg">
<g clip-path="url(#clip0_2543_117)">
<path d="M20.918 6.75H3.66797V4.5C3.66797 4.30109 3.58895 4.11032 3.4483 3.96967C3.30765 3.82902 3.11688 3.75 2.91797 3.75C2.71906 3.75 2.52829 3.82902 2.38764 3.96967C2.24699 4.11032 2.16797 4.30109 2.16797 4.5V19.5C2.16797 19.6989 2.24699 19.8897 2.38764 20.0303C2.52829 20.171 2.71906 20.25 2.91797 20.25C3.11688 20.25 3.30765 20.171 3.4483 20.0303C3.58895 19.8897 3.66797 19.6989 3.66797 19.5V16.5H23.168V19.5C23.168 19.6989 23.247 19.8897 23.3876 20.0303C23.5283 20.171 23.7191 20.25 23.918 20.25C24.1169 20.25 24.3076 20.171 24.4483 20.0303C24.589 19.8897 24.668 19.6989 24.668 19.5V10.5C24.668 9.50544 24.2729 8.55161 23.5696 7.84835C22.8664 7.14509 21.9125 6.75 20.918 6.75ZM3.66797 8.25H10.418V15H3.66797V8.25Z" fill="#2F4B67" fill-opacity="0.8"/>
</g>
<defs>
<clipPath id="clip0_2543_117">
<rect width="24" height="24" fill="white" transform="translate(0.667969)"/>
</clipPath>
</defs>
</svg>
