<svg width="25" height="24" viewBox="0 0 25 24" fill="none" xmlns="http://www.w3.org/2000/svg">
<path d="M15.332 14.25C15.332 14.6478 15.174 15.0294 14.8927 15.3107C14.6114 15.592 14.2299 15.75 13.832 15.75H13.082V12.75H13.832C14.2299 12.75 14.6114 12.908 14.8927 13.1893C15.174 13.4706 15.332 13.8522 15.332 14.25ZM22.082 12C22.082 13.9284 21.5102 15.8134 20.4389 17.4168C19.3675 19.0202 17.8448 20.2699 16.0632 21.0078C14.2816 21.7458 12.3212 21.9389 10.4299 21.5627C8.53859 21.1865 6.80131 20.2579 5.43774 18.8943C4.07418 17.5307 3.14559 15.7934 2.76938 13.9021C2.39317 12.0108 2.58626 10.0504 3.32421 8.26884C4.06216 6.48726 5.31185 4.96451 6.91523 3.89317C8.51861 2.82183 10.4037 2.25 12.332 2.25C14.9171 2.25273 17.3954 3.28084 19.2233 5.10872C21.0512 6.93661 22.0793 9.41498 22.082 12ZM16.832 14.25C16.832 13.4544 16.516 12.6913 15.9534 12.1287C15.3907 11.5661 14.6277 11.25 13.832 11.25H13.082V8.25H13.457C13.8549 8.25 14.2364 8.40804 14.5177 8.68934C14.799 8.97064 14.957 9.35218 14.957 9.75C14.957 9.94891 15.0361 10.1397 15.1767 10.2803C15.3174 10.421 15.5081 10.5 15.707 10.5C15.9059 10.5 16.0967 10.421 16.2374 10.2803C16.378 10.1397 16.457 9.94891 16.457 9.75C16.457 8.95435 16.141 8.19129 15.5784 7.62868C15.0157 7.06607 14.2527 6.75 13.457 6.75H13.082V6C13.082 5.80109 13.003 5.61032 12.8624 5.46967C12.7217 5.32902 12.5309 5.25 12.332 5.25C12.1331 5.25 11.9424 5.32902 11.8017 5.46967C11.6611 5.61032 11.582 5.80109 11.582 6V6.75H11.207C10.4114 6.75 9.64832 7.06607 9.08572 7.62868C8.52311 8.19129 8.20704 8.95435 8.20704 9.75C8.20704 10.5456 8.52311 11.3087 9.08572 11.8713C9.64832 12.4339 10.4114 12.75 11.207 12.75H11.582V15.75H10.832C10.4342 15.75 10.0527 15.592 9.77138 15.3107C9.49007 15.0294 9.33204 14.6478 9.33204 14.25C9.33204 14.0511 9.25302 13.8603 9.11237 13.7197C8.97171 13.579 8.78095 13.5 8.58204 13.5C8.38312 13.5 8.19236 13.579 8.05171 13.7197C7.91105 13.8603 7.83204 14.0511 7.83204 14.25C7.83204 15.0456 8.14811 15.8087 8.71072 16.3713C9.27332 16.9339 10.0364 17.25 10.832 17.25H11.582V18C11.582 18.1989 11.6611 18.3897 11.8017 18.5303C11.9424 18.671 12.1331 18.75 12.332 18.75C12.5309 18.75 12.7217 18.671 12.8624 18.5303C13.003 18.3897 13.082 18.1989 13.082 18V17.25H13.832C14.6277 17.25 15.3907 16.9339 15.9534 16.3713C16.516 15.8087 16.832 15.0456 16.832 14.25ZM9.70704 9.75C9.70704 10.1478 9.86507 10.5294 10.1464 10.8107C10.4277 11.092 10.8092 11.25 11.207 11.25H11.582V8.25H11.207C10.8092 8.25 10.4277 8.40804 10.1464 8.68934C9.86507 8.97064 9.70704 9.35218 9.70704 9.75Z" fill="#2F4B67" fill-opacity="0.8"/>
</svg>
