<svg width="25" height="24" viewBox="0 0 25 24" fill="none" xmlns="http://www.w3.org/2000/svg">
<path d="M22.832 19.5H21.332V12.75L21.5514 12.9694C21.6924 13.1101 21.8835 13.1891 22.0827 13.1889C22.2819 13.1887 22.4729 13.1094 22.6136 12.9684C22.7543 12.8275 22.8333 12.6363 22.8331 12.4371C22.8329 12.2379 22.7536 12.047 22.6127 11.9062L13.3923 2.68875C13.1111 2.40766 12.7297 2.24976 12.332 2.24976C11.9344 2.24976 11.553 2.40766 11.2717 2.68875L2.05141 11.9062C1.9108 12.047 1.83186 12.2378 1.83195 12.4367C1.83203 12.6357 1.91114 12.8264 2.05187 12.967C2.19261 13.1076 2.38343 13.1866 2.58236 13.1865C2.7813 13.1864 2.97205 13.1073 3.11266 12.9666L3.33203 12.75V19.5H1.83203C1.63312 19.5 1.44235 19.579 1.3017 19.7197C1.16105 19.8603 1.08203 20.0511 1.08203 20.25C1.08203 20.4489 1.16105 20.6397 1.3017 20.7803C1.44235 20.921 1.63312 21 1.83203 21H22.832C23.0309 21 23.2217 20.921 23.3624 20.7803C23.503 20.6397 23.582 20.4489 23.582 20.25C23.582 20.0511 23.503 19.8603 23.3624 19.7197C23.2217 19.579 23.0309 19.5 22.832 19.5ZM14.582 19.5H10.082V15C10.082 14.9005 10.1215 14.8052 10.1919 14.7348C10.2622 14.6645 10.3576 14.625 10.457 14.625H14.207C14.3065 14.625 14.4019 14.6645 14.4722 14.7348C14.5425 14.8052 14.582 14.9005 14.582 15V19.5Z" fill="#2F4B67" fill-opacity="0.8"/>
</svg>
